<svg width="40" height="30" viewBox="0 0 40 30" fill="none" xmlns="http://www.w3.org/2000/svg">
<path d="M34.3777 3.07568H5.6225C5.35137 3.076 5.09145 3.18388 4.89977 3.37563C4.70809 3.56739 4.60031 3.82735 4.6001 4.09848V6.15608C4.6001 6.25088 4.7029 6.35968 4.7869 6.40368L19.9013 15.0369C19.94 15.059 19.9839 15.0705 20.0285 15.0701C20.0741 15.0702 20.1189 15.0581 20.1581 15.0349L34.8157 6.41208C34.8981 6.36608 35.1165 6.24448 35.1985 6.18848C35.2977 6.12088 35.4001 6.05968 35.4001 5.93848V4.09808C35.3998 3.82702 35.292 3.56716 35.1003 3.37549C34.9086 3.18382 34.6488 3.076 34.3777 3.07568ZM35.2725 9.25848C35.2332 9.23604 35.1886 9.22437 35.1433 9.22466C35.098 9.22494 35.0536 9.23716 35.0145 9.26008L26.7197 14.1405C26.6867 14.1597 26.6584 14.1862 26.6369 14.2179C26.6155 14.2496 26.6015 14.2857 26.5959 14.3235C26.5903 14.3614 26.5933 14.4 26.6047 14.4365C26.6161 14.473 26.6356 14.5065 26.6617 14.5345L34.9577 23.4773C34.9815 23.5031 35.0104 23.5237 35.0425 23.5377C35.0747 23.5518 35.1094 23.559 35.1445 23.5589C35.2123 23.5588 35.2772 23.5318 35.3251 23.4839C35.373 23.436 35.4 23.371 35.4001 23.3033V9.48048C35.4003 9.43552 35.3886 9.39131 35.3662 9.35232C35.3438 9.31334 35.3114 9.28097 35.2725 9.25848ZM24.3293 15.7793C24.2899 15.7364 24.237 15.7083 24.1794 15.6997C24.1219 15.6911 24.0631 15.7026 24.0129 15.7321L20.6881 17.6885C20.4933 17.801 20.2726 17.861 20.0476 17.8625C19.8226 17.8639 19.6012 17.8069 19.4049 17.6969L16.4789 16.0253C16.4317 15.9984 16.3771 15.9872 16.3231 15.9934C16.2691 15.9996 16.2184 16.0228 16.1785 16.0597L5.0673 26.3661C5.03817 26.3933 5.01581 26.427 5.00199 26.4644C4.98817 26.5018 4.98328 26.5419 4.98771 26.5815C4.99214 26.6212 5.00576 26.6592 5.0275 26.6926C5.04924 26.7261 5.07848 26.754 5.1129 26.7741C5.2857 26.8757 5.4525 26.9241 5.6221 26.9241H34.0833C34.1331 26.9242 34.1818 26.9096 34.2234 26.8823C34.2651 26.8549 34.2977 26.8159 34.3173 26.7701C34.3373 26.7246 34.3434 26.6742 34.335 26.6252C34.3266 26.5762 34.3041 26.5308 34.2701 26.4945L24.3293 15.7793ZM13.7337 14.8405C13.7631 14.8133 13.7857 14.7795 13.7997 14.742C13.8137 14.7044 13.8187 14.6641 13.8142 14.6243C13.8097 14.5844 13.7959 14.5462 13.774 14.5127C13.752 14.4792 13.7224 14.4513 13.6877 14.4313L4.9813 9.45848C4.94245 9.43642 4.89848 9.42495 4.8538 9.42521C4.80912 9.42548 4.76529 9.43746 4.7267 9.45998C4.68811 9.4825 4.6561 9.51475 4.63388 9.55352C4.61167 9.59228 4.60002 9.6362 4.6001 9.68088V22.7289C4.59982 22.7787 4.61416 22.8275 4.64134 22.8693C4.66852 22.9111 4.70735 22.944 4.75303 22.9639C4.79871 22.9838 4.84923 22.9899 4.89833 22.9814C4.94744 22.9729 4.99297 22.9502 5.0293 22.9161L13.7337 14.8405Z" fill="#06E4D7"/>
</svg>
