<svg width="40" height="40" viewBox="0 0 40 40" fill="none" xmlns="http://www.w3.org/2000/svg">
<path d="M35.9819 27.4173C35.7056 29.5176 34.6741 31.4455 33.0801 32.8409C31.4862 34.2363 29.4388 35.0038 27.3204 35C15.0132 35 5.00001 24.9869 5.00001 12.6798C4.99622 10.5614 5.76369 8.51398 7.1591 6.92006C8.5545 5.32614 10.4824 4.29466 12.5827 4.01829C13.1139 3.95344 13.6517 4.06209 14.116 4.32804C14.5803 4.59399 14.9461 5.00296 15.1589 5.4939L18.4325 12.8022V12.8208C18.5954 13.1966 18.6627 13.6069 18.6284 14.0151C18.594 14.4232 18.4591 14.8165 18.2357 15.1598C18.2078 15.2016 18.1783 15.2404 18.1473 15.2791L14.9202 19.1046C16.0812 21.4637 18.5488 23.9096 20.9389 25.0737L24.7117 21.8636C24.7488 21.8325 24.7876 21.8035 24.828 21.7768C25.171 21.548 25.5656 21.4084 25.9762 21.3705C26.3867 21.3326 26.8003 21.3977 27.1793 21.5598L27.1995 21.5691L34.5017 24.8412C34.9935 25.0532 35.4035 25.4187 35.6703 25.883C35.9371 26.3474 36.0464 26.8857 35.9819 27.4173Z" fill="#06E4D7"/>
</svg>
